<?xml version="1.0" standalone="no"?>
<!DOCTYPE svg PUBLIC "-//W3C//DTD SVG 20010904//EN"
 "http://www.w3.org/TR/2001/REC-SVG-20010904/DTD/svg10.dtd">
<svg version="1.0" xmlns="http://www.w3.org/2000/svg"
 width="260.000000pt" height="260.000000pt" viewBox="0 0 260.000000 260.000000"
 preserveAspectRatio="xMidYMid meet">
<metadata>
Created by potrace 1.11, written by Peter Selinger 2001-2013
</metadata>
<g transform="translate(0.000000,260.000000) scale(0.100000,-0.100000)"
fill="#000000" stroke="none">
<path d="M570 2339 c0 -24 4 -27 49 -32 104 -12 140 -58 127 -161 -6 -44 -367
-1427 -410 -1571 -20 -66 -68 -138 -103 -154 -16 -8 -59 -19 -98 -25 -65 -11
-70 -14 -73 -39 l-3 -27 125 0 c119 0 126 -1 151 -24 35 -33 88 -38 313 -34
183 3 184 3 206 29 21 24 29 26 152 32 112 6 207 18 333 43 32 7 33 6 22 -15
-16 -28 3 -35 72 -28 155 16 396 145 549 293 218 211 337 425 400 717 16 77
21 137 22 247 0 210 -25 290 -145 457 -125 173 -261 250 -539 306 -36 7 -247
11 -602 11 l-548 1 0 -26z m1020 -50 c215 -63 310 -288 280 -661 -30 -380
-157 -721 -355 -959 -43 -51 -155 -148 -213 -183 -82 -50 -181 -83 -287 -96
-149 -19 -166 -6 -145 111 14 79 382 1483 408 1559 11 31 29 75 41 98 31 60
28 90 -10 106 -24 10 -28 15 -16 24 41 35 183 35 297 1z"/>
</g>
</svg>
